<?xml version="1.0" encoding="utf-8"?>
<!-- Generator: Adobe Illustrator 16.0.0, SVG Export Plug-In . SVG Version: 6.00 Build 0)  -->
<!DOCTYPE svg PUBLIC "-//W3C//DTD SVG 1.1//EN" "http://www.w3.org/Graphics/SVG/1.1/DTD/svg11.dtd">
<svg version="1.1" id="Layer_1" xmlns="http://www.w3.org/2000/svg" xmlns:xlink="http://www.w3.org/1999/xlink" x="0px" y="0px"
	 width="135px" height="44px" viewBox="0 0 135 44" enable-background="new 0 0 135 44" xml:space="preserve">
<rect y="-62" width="135" height="44"/>
<g>
	<path fill="#FFFFFF" d="M61.606,16.955l4.172,6.705h0.028v-6.705h2.059v9.996h-2.199l-4.158-6.691H61.48v6.691h-2.058v-9.996
		H61.606z"/>
	<path fill="#FFFFFF" d="M70.342,18.594v-1.639h1.988v1.639H70.342z M72.33,19.713v7.238h-1.988v-7.238H72.33z"/>
	<path fill="#FFFFFF" d="M78.057,21.016c-0.318,0-0.584,0.072-0.799,0.217s-0.389,0.33-0.524,0.559
		c-0.136,0.23-0.231,0.482-0.287,0.758s-0.084,0.547-0.084,0.818c0,0.262,0.028,0.527,0.084,0.797
		c0.056,0.271,0.147,0.518,0.272,0.736c0.127,0.219,0.297,0.398,0.512,0.539c0.215,0.139,0.476,0.209,0.783,0.209
		c0.477,0,0.843-0.133,1.1-0.398s0.418-0.623,0.482-1.07h1.918c-0.131,0.961-0.504,1.693-1.119,2.197
		c-0.616,0.504-1.405,0.756-2.366,0.756c-0.542,0-1.038-0.092-1.491-0.273s-0.838-0.436-1.154-0.762
		c-0.318-0.328-0.565-0.717-0.742-1.17c-0.178-0.453-0.266-0.949-0.266-1.49c0-0.561,0.081-1.08,0.244-1.562
		c0.164-0.48,0.404-0.895,0.721-1.244c0.318-0.352,0.705-0.623,1.162-0.82c0.457-0.195,0.98-0.293,1.568-0.293
		c0.43,0,0.842,0.055,1.238,0.168c0.397,0.111,0.752,0.281,1.064,0.51s0.567,0.514,0.764,0.855c0.195,0.34,0.308,0.744,0.336,1.211
		h-1.946C79.396,21.43,78.905,21.016,78.057,21.016z"/>
	<path fill="#FFFFFF" d="M85.504,16.955v5.361l2.506-2.604h2.353l-2.729,2.66l3.037,4.578h-2.408l-1.988-3.234l-0.77,0.742v2.492
		h-1.988v-9.996H85.504z"/>
	<path fill="#FFFFFF" d="M102.262,16.955c0.449,0,0.852,0.072,1.211,0.217s0.668,0.344,0.925,0.596s0.452,0.543,0.588,0.875
		c0.136,0.33,0.203,0.688,0.203,1.07c0,0.588-0.124,1.098-0.371,1.525c-0.247,0.43-0.651,0.756-1.211,0.98v0.027
		c0.271,0.076,0.495,0.189,0.672,0.344s0.321,0.336,0.435,0.547c0.111,0.209,0.193,0.439,0.244,0.691s0.086,0.504,0.105,0.756
		c0.009,0.16,0.019,0.346,0.027,0.561c0.01,0.215,0.025,0.434,0.049,0.658s0.061,0.438,0.113,0.637
		c0.051,0.201,0.127,0.371,0.23,0.512h-2.198c-0.121-0.318-0.196-0.695-0.224-1.135c-0.028-0.438-0.07-0.857-0.127-1.26
		c-0.074-0.521-0.232-0.904-0.476-1.148c-0.243-0.242-0.64-0.363-1.19-0.363H99.07v3.906h-2.198v-9.996H102.262z M101.479,21.477
		c0.504,0,0.882-0.111,1.134-0.336s0.378-0.588,0.378-1.092c0-0.484-0.126-0.838-0.378-1.057s-0.63-0.33-1.134-0.33H99.07v2.814
		H101.479z"/>
	<path fill="#FFFFFF" d="M112.369,26.951v-1.008h-0.041c-0.252,0.42-0.579,0.723-0.98,0.91c-0.401,0.186-0.812,0.279-1.232,0.279
		c-0.531,0-0.968-0.07-1.309-0.209c-0.341-0.141-0.609-0.34-0.805-0.596c-0.196-0.256-0.334-0.57-0.413-0.938
		c-0.079-0.369-0.119-0.777-0.119-1.227v-4.451h1.988v4.088c0,0.598,0.093,1.043,0.28,1.338c0.186,0.293,0.518,0.439,0.994,0.439
		c0.541,0,0.933-0.16,1.176-0.482c0.242-0.322,0.363-0.852,0.363-1.588v-3.795h1.988v7.238H112.369z"/>
	<path fill="#FFFFFF" d="M116.527,18.594v-1.639h1.988v1.639H116.527z M118.516,19.713v7.238h-1.988v-7.238H118.516z"/>
	<path fill="#FFFFFF" d="M124.102,21.211h-3.486v-1.498h6.104v1.498l-3.767,4.242h4.033v1.498h-6.65v-1.498L124.102,21.211z"/>
</g>
<g>
	<path fill="#FFFFFF" d="M61.606-44.73l4.172,6.705h0.028v-6.705h2.059v9.996h-2.199l-4.158-6.692H61.48v6.692h-2.058v-9.996H61.606
		z"/>
	<path fill="#FFFFFF" d="M70.342-43.092v-1.638h1.988v1.638H70.342z M72.33-41.972v7.238h-1.988v-7.238H72.33z"/>
	<path fill="#FFFFFF" d="M78.057-40.67c-0.318,0-0.584,0.072-0.799,0.217c-0.215,0.146-0.389,0.331-0.524,0.56
		c-0.136,0.229-0.231,0.481-0.287,0.757s-0.084,0.548-0.084,0.819c0,0.261,0.028,0.527,0.084,0.797
		c0.056,0.271,0.147,0.517,0.272,0.736c0.127,0.219,0.297,0.398,0.512,0.538s0.476,0.21,0.783,0.21c0.477,0,0.843-0.133,1.1-0.398
		s0.418-0.623,0.482-1.071h1.918c-0.131,0.962-0.504,1.694-1.119,2.198c-0.616,0.504-1.405,0.756-2.366,0.756
		c-0.542,0-1.038-0.092-1.491-0.273s-0.838-0.436-1.154-0.763c-0.318-0.327-0.565-0.716-0.742-1.169
		c-0.178-0.453-0.266-0.949-0.266-1.491c0-0.56,0.081-1.08,0.244-1.562c0.164-0.48,0.404-0.896,0.721-1.245
		c0.318-0.351,0.705-0.623,1.162-0.819c0.457-0.195,0.98-0.294,1.568-0.294c0.43,0,0.842,0.056,1.238,0.168
		c0.397,0.112,0.752,0.282,1.064,0.511s0.567,0.514,0.764,0.854c0.195,0.341,0.308,0.744,0.336,1.211h-1.946
		C79.396-40.255,78.905-40.67,78.057-40.67z"/>
	<path fill="#FFFFFF" d="M85.504-44.73v5.361l2.506-2.604h2.353l-2.729,2.66l3.037,4.578h-2.408l-1.988-3.234l-0.77,0.742v2.492
		h-1.988v-9.996H85.504z"/>
	<path fill="#FFFFFF" d="M102.262-44.73c0.449,0,0.852,0.072,1.211,0.217s0.668,0.343,0.925,0.595s0.452,0.544,0.588,0.875
		s0.203,0.688,0.203,1.071c0,0.588-0.124,1.097-0.371,1.525c-0.247,0.43-0.651,0.756-1.211,0.98v0.027
		c0.271,0.075,0.495,0.189,0.672,0.344s0.321,0.336,0.435,0.546c0.111,0.21,0.193,0.44,0.244,0.692s0.086,0.504,0.105,0.756
		c0.009,0.16,0.019,0.346,0.027,0.561c0.01,0.215,0.025,0.434,0.049,0.658s0.061,0.437,0.113,0.637
		c0.051,0.201,0.127,0.371,0.23,0.512h-2.198c-0.121-0.318-0.196-0.695-0.224-1.135c-0.028-0.438-0.07-0.858-0.127-1.26
		c-0.074-0.522-0.232-0.905-0.476-1.148c-0.243-0.242-0.64-0.363-1.19-0.363H99.07v3.906h-2.198v-9.996H102.262z M101.479-40.208
		c0.504,0,0.882-0.111,1.134-0.336s0.378-0.588,0.378-1.092c0-0.485-0.126-0.838-0.378-1.057c-0.252-0.22-0.63-0.33-1.134-0.33
		H99.07v2.814H101.479z"/>
	<path fill="#FFFFFF" d="M112.369-34.734v-1.008h-0.041c-0.252,0.42-0.579,0.723-0.98,0.909s-0.812,0.28-1.232,0.28
		c-0.531,0-0.968-0.07-1.309-0.21s-0.609-0.339-0.805-0.595c-0.196-0.257-0.334-0.57-0.413-0.938s-0.119-0.776-0.119-1.226v-4.451
		h1.988v4.088c0,0.598,0.093,1.043,0.28,1.337c0.186,0.294,0.518,0.44,0.994,0.44c0.541,0,0.933-0.16,1.176-0.482
		c0.242-0.322,0.363-0.852,0.363-1.589v-3.794h1.988v7.238H112.369z"/>
	<path fill="#FFFFFF" d="M116.527-43.092v-1.638h1.988v1.638H116.527z M118.516-41.972v7.238h-1.988v-7.238H118.516z"/>
	<path fill="#FFFFFF" d="M124.102-40.474h-3.486v-1.498h6.104v1.498l-3.767,4.242h4.033v1.498h-6.65v-1.498L124.102-40.474z"/>
</g>
<defs>
	<filter id="Adobe_OpacityMaskFilter" filterUnits="userSpaceOnUse" x="0" y="-62" width="44" height="44">
		<feFlood  style="flood-color:white;flood-opacity:1" result="back"/>
		<feBlend  in="SourceGraphic" in2="back" mode="normal"/>
	</filter>
</defs>
<mask maskUnits="userSpaceOnUse" x="0" y="-62" width="44" height="44" id="SVGID_1_">
	<g filter="url(#Adobe_OpacityMaskFilter)">
	</g>
</mask>
<g mask="url(#SVGID_1_)">
	<rect y="-62" fill="#FFFFFF" width="44" height="44"/>
	<g opacity="0">
		<path d="M15.193-32.553h4.547v-0.51c-0.83-0.031-1.379-0.256-1.646-0.668c-0.17-0.256-0.254-0.693-0.254-1.311v-7.867h0.137
			l8.827,10.729h0.558v-11.826c0-0.609,0.107-1.002,0.318-1.178c0.213-0.176,0.633-0.314,1.26-0.418v-0.51h-4.311v0.51
			c0.74,0.059,1.234,0.232,1.48,0.523c0.247,0.291,0.371,0.775,0.371,1.455v5.895h-0.098l-6.898-8.383h-4.252v0.51
			c0.249,0.033,0.445,0.109,0.588,0.23c0.145,0.121,0.523,0.523,1.137,1.209v9.504c0,0.516-0.107,0.906-0.322,1.17
			c-0.217,0.266-0.696,0.406-1.441,0.426V-32.553z"/>
	</g>
</g>
<g>
	<rect fill="#FFFFFF" width="44" height="44"/>
	<g opacity="0">
		<path d="M12.707,30.408c1.075-0.11,1.765-0.353,2.069-0.729c0.305-0.376,0.457-1.249,0.457-2.619V15.604l-0.355-0.419
			c-0.381-0.448-0.705-0.725-0.971-0.83c-0.267-0.106-0.667-0.168-1.2-0.185v-0.482h4.437l10.036,12.439v-8.64
			c0-1.421-0.211-2.346-0.635-2.775c-0.279-0.277-0.897-0.458-1.854-0.542v-0.482h6.106v0.482c-0.99,0.102-1.65,0.343-1.98,0.724
			s-0.495,1.253-0.495,2.615v13.686h-0.444L16.375,16.938V27.06c0,1.421,0.208,2.347,0.622,2.778
			c0.271,0.278,0.876,0.469,1.815,0.57v0.482h-6.106V30.408z"/>
	</g>
</g>
</svg>
